<?xml version="1.0" standalone="no"?>
<!DOCTYPE svg PUBLIC "-//W3C//DTD SVG 20010904//EN"
 "http://www.w3.org/TR/2001/REC-SVG-20010904/DTD/svg10.dtd">
<svg version="1.0" xmlns="http://www.w3.org/2000/svg"
 width="256.000000pt" height="256.000000pt" viewBox="0 0 256.000000 256.000000"
 preserveAspectRatio="xMidYMid meet">
<metadata>
Created by potrace 1.14, written by Peter Selinger 2001-2017
</metadata>
<g transform="translate(0.000000,256.000000) scale(0.100000,-0.100000)"
fill="#000000" stroke="none">
<path d="M1198 2407 c-270 -326 -298 -363 -286 -375 6 -6 6 -12 -1 -16 -16
-10 -13 -23 5 -30 14 -5 15 -4 4 9 -16 19 -2 20 20 0 15 -13 25 -4 111 103 52
64 127 156 167 205 l73 88 52 -64 c57 -69 77 -95 192 -237 43 -52 81 -97 86
-98 6 -2 17 2 26 10 15 11 16 11 9 -7 -4 -11 -4 -16 0 -13 3 4 15 -3 25 -15
10 -12 18 -16 19 -9 0 6 -5 12 -11 12 -6 0 -8 7 -5 16 3 8 2 13 -3 10 -5 -3
-11 3 -14 14 -3 11 -1 23 4 26 8 5 -53 84 -288 371 l-92 113 -93 -113z"/>
<path d="M1287 2204 c-3 -3 -3 -12 -1 -19 3 -7 -3 -15 -13 -18 -16 -4 -16 -5
0 -6 9 0 17 -5 17 -9 0 -15 -46 -52 -55 -45 -4 5 -5 3 -2 -3 3 -5 -3 -23 -13
-39 -14 -21 -16 -34 -9 -47 8 -14 6 -17 -8 -13 -10 3 -4 -1 12 -9 26 -13 27
-15 8 -16 -22 0 -48 -32 -36 -44 6 -6 -9 -9 -37 -7 -10 0 -11 -1 -2 -5 17 -8
15 -25 -3 -18 -11 5 -13 2 -9 -10 4 -9 9 -14 12 -11 3 3 14 -3 24 -12 11 -10
19 -13 18 -8 -5 21 0 36 10 30 6 -3 10 -1 10 4 0 14 -13 14 -28 -1 -7 -7 -12
-8 -12 -2 0 5 10 15 21 23 18 11 23 11 30 0 7 -12 10 -11 21 0 10 10 10 12 1
7 -7 -4 -13 -3 -13 3 0 5 6 12 13 14 6 3 -3 4 -21 2 -25 -2 -31 0 -22 9 6 6
22 11 35 11 23 1 30 -7 26 -28 -1 -5 3 -6 9 -2 5 3 12 0 15 -7 3 -8 16 -14 28
-15 21 -2 21 -1 3 13 -11 8 -14 14 -7 14 7 0 10 4 6 9 -3 5 -1 12 4 15 10 7
62 -54 56 -64 -3 -5 2 -11 11 -14 8 -3 12 -10 9 -16 -4 -6 -11 -8 -16 -5 -12
8 -11 1 2 -29 7 -14 16 -23 21 -20 5 3 4 12 -3 20 -8 10 -8 14 0 14 6 0 11 -4
11 -10 0 -5 5 -10 11 -10 5 0 7 4 4 10 -3 6 1 7 10 4 9 -4 14 -12 11 -19 -2
-6 0 -18 5 -26 7 -12 9 -12 9 0 0 8 3 11 6 8 4 -4 2 -12 -4 -20 -7 -8 -7 -18
-2 -27 8 -13 10 -12 10 3 0 9 5 17 10 17 7 0 7 -6 0 -19 -13 -26 -13 -28 5
-28 9 0 14 6 11 13 -3 8 -1 16 5 19 5 4 9 3 8 -2 -1 -4 -1 -14 0 -22 1 -11 4
-11 18 0 14 12 16 12 8 -1 -5 -8 -10 -23 -10 -32 -1 -14 1 -15 12 -6 11 9 13
8 11 -2 -4 -20 39 -21 54 -2 11 13 10 15 -9 10 -12 -3 -22 -3 -21 1 2 19 -3
32 -11 27 -10 -7 -9 13 2 31 4 6 3 14 -2 17 -5 4 -11 1 -13 -5 -2 -5 -15 2
-28 17 -14 15 -20 24 -13 20 6 -3 14 -2 18 4 3 5 1 10 -5 10 -7 0 -10 7 -7 14
4 10 1 13 -8 9 -8 -3 -13 -9 -10 -13 3 -5 1 -11 -4 -15 -6 -3 -8 3 -6 15 2 11
-1 22 -6 26 -6 3 -5 12 3 22 11 14 10 15 -5 9 -10 -4 -21 -7 -23 -7 -3 0 -3
-4 0 -8 3 -5 -1 -9 -8 -9 -7 0 -13 10 -12 21 1 12 -5 21 -11 22 -38 4 -38 4
-24 13 7 5 10 14 6 20 -5 9 -11 9 -23 -1 -14 -10 -15 -10 -5 1 9 11 8 17 -5
30 -10 9 -13 13 -8 9 20 -15 29 -8 13 10 -13 14 -14 21 -5 30 8 8 8 15 -1 25
-9 11 -8 17 6 28 14 12 16 12 8 0 -5 -9 -4 -12 3 -7 7 4 9 -2 6 -18 -3 -19 1
-26 18 -32 13 -5 27 -7 31 -6 5 1 6 -2 2 -7 -3 -6 -13 -7 -22 -4 -13 5 -12 0
6 -25 12 -18 27 -32 33 -32 6 0 4 8 -5 18 -11 12 -13 22 -6 34 7 12 3 21 -16
36 -14 11 -25 24 -25 29 0 5 -16 24 -35 43 -19 18 -31 38 -28 44 4 6 -1 5 -10
-3 -21 -16 -22 -32 -3 -25 8 3 17 1 21 -5 3 -6 1 -11 -6 -11 -8 0 -8 -4 1 -17
7 -10 -2 -3 -19 15 -17 18 -29 37 -26 42 4 6 1 10 -6 10 -8 0 -5 5 5 13 15 11
16 15 3 25 -7 6 -16 9 -20 6z m153 -180 c0 -2 -9 0 -20 6 -11 6 -20 13 -20 16
0 2 9 0 20 -6 11 -6 20 -13 20 -16z m61 -231 c13 -16 12 -17 -3 -4 -10 7 -18
15 -18 17 0 8 8 3 21 -13z"/>
<path d="M1313 2155 c0 -8 4 -12 9 -9 4 3 8 9 8 15 0 5 -4 9 -8 9 -5 0 -9 -7
-9 -15z"/>
<path d="M1230 2141 c0 -6 4 -13 10 -16 6 -3 7 1 4 9 -7 18 -14 21 -14 7z"/>
<path d="M1255 2140 c3 -5 8 -10 11 -10 2 0 4 5 4 10 0 6 -5 10 -11 10 -5 0
-7 -4 -4 -10z"/>
<path d="M1211 2092 c-1 -8 -6 -10 -13 -6 -10 5 -10 4 -1 -6 15 -16 28 -8 20
12 -4 11 -6 11 -6 0z"/>
<path d="M1155 2059 c-3 -4 2 -6 10 -5 21 3 28 13 10 13 -9 0 -18 -4 -20 -8z"/>
<path d="M1125 2004 c-9 -15 -12 -23 -6 -20 11 7 35 46 28 46 -3 0 -12 -12
-22 -26z"/>
<path d="M1175 2020 c-3 -6 1 -7 9 -4 18 7 21 14 7 14 -6 0 -13 -4 -16 -10z"/>
<path d="M1377 2023 c-4 -7 3 -19 15 -27 12 -9 17 -16 10 -16 -10 0 -9 -5 3
-16 9 -9 13 -24 10 -32 -3 -9 -3 -13 1 -10 4 4 15 1 26 -6 10 -7 32 -12 49
-10 18 2 28 0 24 -6 -4 -6 -3 -10 2 -9 21 4 34 -2 27 -13 -5 -7 -3 -8 6 -3 9
6 11 4 5 -5 -7 -11 -10 -10 -19 1 -13 17 -40 19 -43 4 -1 -5 7 -9 19 -7 14 1
19 -2 15 -13 -4 -8 -2 -17 4 -21 7 -4 6 -10 -1 -19 -12 -15 3 -31 19 -20 5 3
12 1 16 -4 3 -7 15 -7 30 -1 15 6 27 6 30 -1 4 -5 3 -9 -2 -8 -20 3 -34 -2
-28 -11 3 -5 12 -7 20 -3 9 3 15 -1 15 -11 0 -9 5 -16 11 -16 5 0 7 5 3 12 -5
7 -3 8 6 3 11 -7 10 -10 -1 -19 -16 -12 -23 -36 -11 -36 14 0 28 15 26 30 -3
36 -5 40 -20 40 -8 0 -13 4 -10 9 9 13 -34 56 -52 53 -13 -3 -14 -1 -4 10 9
12 2 25 -36 66 -27 29 -46 52 -44 52 3 0 -3 9 -13 20 -10 11 -22 17 -27 14 -5
-3 -2 -14 7 -24 25 -27 0 -35 -31 -11 -15 12 -23 21 -19 21 4 0 2 6 -4 13 -6
8 -7 18 -3 22 4 5 2 5 -5 2 -6 -4 -13 -2 -15 5 -3 9 -6 9 -11 1z m104 -50 c13
-16 12 -17 -3 -4 -10 7 -18 15 -18 17 0 8 8 3 21 -13z m1 -38 c18 2 33 -4 45
-18 l18 -22 -22 19 c-17 14 -23 16 -23 5 0 -11 -2 -11 -10 1 -8 12 -12 12 -18
2 -6 -9 -15 -5 -33 15 -15 18 -17 22 -4 11 11 -9 32 -15 47 -13z m84 -91 c-12
-8 -13 -13 -5 -16 7 -2 13 -12 15 -22 2 -13 -1 -14 -10 -7 -7 6 -17 7 -21 3
-5 -4 -5 -1 -1 6 4 7 2 20 -5 28 -7 8 -8 14 -3 13 22 -4 35 2 28 13 -5 7 -3 8
6 3 10 -6 9 -11 -4 -21z"/>
<path d="M1160 1992 c9 -19 30 -23 30 -5 0 4 -3 3 -7 0 -3 -4 -12 1 -20 11
-13 15 -13 15 -3 -6z"/>
<path d="M887 1969 c3 -11 0 -19 -6 -19 -7 0 -9 5 -5 12 4 7 3 8 -5 4 -6 -4
-9 -12 -6 -17 4 -5 1 -9 -4 -9 -6 0 -10 -3 -10 -7 3 -21 -2 -26 -12 -13 -8 12
-9 10 -4 -7 4 -16 2 -22 -7 -20 -7 2 -10 2 -5 0 11 -7 -2 -23 -16 -19 -7 1 -9
1 -4 -1 14 -9 7 -25 -9 -19 -8 3 -12 2 -9 -4 11 -18 21 -11 55 38 19 26 38 49
42 50 5 2 13 12 18 22 7 13 6 19 -4 23 -10 4 -12 0 -9 -14z"/>
<path d="M1135 1981 c-6 -11 13 -26 22 -17 4 3 1 6 -6 6 -7 0 -9 5 -6 10 3 6
4 10 1 10 -3 0 -7 -4 -11 -9z"/>
<path d="M1106 1962 c-3 -5 1 -9 9 -9 8 0 12 4 9 9 -3 4 -7 8 -9 8 -2 0 -6 -4
-9 -8z"/>
<path d="M1714 1950 c5 -41 17 -64 27 -49 5 8 2 20 -5 29 -7 8 -16 22 -19 30
-3 8 -5 4 -3 -10z"/>
<path d="M1076 1947 c3 -10 9 -15 12 -12 3 3 0 11 -7 18 -10 9 -11 8 -5 -6z"/>
<path d="M1323 1950 c2 -8 6 -21 10 -27 9 -15 10 -15 -23 -18 -14 -1 -28 2
-32 9 -6 8 -8 7 -8 -2 0 -7 -5 -10 -12 -6 -7 4 -8 3 -4 -5 4 -6 11 -9 15 -7 4
3 13 1 21 -4 13 -8 12 -12 -5 -25 -11 -9 -14 -13 -7 -10 10 5 13 1 10 -16 -2
-13 -9 -23 -16 -21 -8 1 -11 -2 -8 -7 9 -14 -22 -34 -41 -27 -17 6 -17 5 0 -8
14 -11 15 -15 3 -25 -7 -6 -22 -8 -32 -5 -17 6 -17 5 1 -9 18 -14 18 -16 3
-22 -9 -4 -28 -24 -43 -46 -14 -22 -29 -38 -33 -35 -4 2 -7 -6 -7 -19 1 -24
70 -133 93 -148 6 -4 12 -12 12 -18 0 -5 12 -21 26 -34 16 -15 24 -31 20 -40
-3 -9 -2 -14 2 -13 53 26 62 33 57 47 -3 8 -3 12 1 9 6 -7 39 20 39 32 0 3 10
16 22 29 12 13 19 29 16 35 -3 6 -3 8 2 4 9 -8 42 31 37 44 -1 5 3 7 10 5 7
-1 12 3 13 8 0 6 4 15 8 21 4 7 0 17 -8 24 -14 11 -14 15 1 31 19 21 6 26 -15
7 -11 -11 -12 -10 -6 1 6 11 4 13 -9 8 -9 -4 -14 -3 -11 2 3 5 1 13 -5 16 -6
4 -8 15 -5 25 5 15 2 18 -13 15 -19 -3 -66 46 -67 70 -1 6 -6 9 -13 8 -7 -2
-9 4 -5 14 4 10 2 14 -4 10 -7 -4 -10 5 -8 24 3 29 15 54 15 30 0 -7 5 -9 12
-5 6 4 8 3 4 -4 -3 -6 1 -15 10 -20 15 -8 15 -10 0 -15 -9 -4 -16 -12 -16 -18
0 -8 4 -8 15 1 9 7 18 10 22 6 3 -3 2 -6 -4 -6 -5 0 -10 -7 -10 -15 0 -22 14
-19 20 4 3 11 -2 29 -10 40 -8 12 -10 21 -4 21 16 0 8 33 -16 66 -12 16 -21
22 -20 14z m34 -54 c0 -8 -6 -12 -14 -9 -7 3 -10 9 -7 14 8 14 21 11 21 -5z"/>
<path d="M1097 1921 c-3 -12 0 -24 5 -28 6 -3 8 -1 4 5 -3 5 -2 12 4 14 5 2 6
9 1 16 -6 10 -10 9 -14 -7z"/>
<path d="M1061 1914 c0 -11 3 -14 6 -6 3 7 2 16 -1 19 -3 4 -6 -2 -5 -13z"/>
<path d="M1036 1895 c-9 -26 -7 -32 5 -12 6 10 9 21 6 23 -2 3 -7 -2 -11 -11z"/>
<path d="M1754 1880 c2 -17 9 -24 20 -22 11 2 14 -2 10 -15 -5 -15 -4 -16 5
-3 8 11 7 18 -4 26 -8 6 -11 15 -7 19 4 5 2 5 -5 2 -6 -4 -14 -1 -17 5 -2 7
-3 2 -2 -12z"/>
<path d="M1061 1881 c-10 -7 -7 -9 12 -8 14 1 23 5 20 10 -6 9 -15 9 -32 -2z"/>
<path d="M1119 1883 c-1 -5 -1 -11 0 -15 0 -5 -3 -8 -9 -8 -5 0 -10 -4 -10 -9
0 -5 11 -8 25 -5 16 3 25 0 25 -8 0 -8 5 -6 11 5 14 23 4 36 -23 29 -14 -3
-19 -2 -14 6 4 7 5 12 2 12 -3 0 -7 -3 -7 -7z"/>
<path d="M1220 1883 c0 -5 12 -9 27 -10 19 -1 22 1 12 8 -17 11 -39 12 -39 2z"/>
<path d="M999 1854 c-15 -19 -21 -47 -8 -38 5 3 7 9 4 14 -7 11 20 32 30 22 5
-4 5 -1 1 6 -9 15 -11 15 -27 -4z"/>
<path d="M1196 1855 c-9 -26 -7 -32 5 -12 6 10 9 21 6 23 -2 3 -7 -2 -11 -11z"/>
<path d="M1314 1853 c2 -10 6 -17 10 -16 15 3 16 11 2 22 -12 10 -14 9 -12 -6z"/>
<path d="M1240 1849 c0 -5 -6 -7 -12 -3 -8 5 -8 1 2 -12 8 -10 15 -20 16 -22
1 -2 2 9 2 23 0 14 -2 25 -4 25 -2 0 -4 -5 -4 -11z"/>
<path d="M758 1823 c-16 -19 -14 -43 4 -43 6 0 4 7 -3 17 -12 15 -12 16 3 10
13 -4 15 -2 11 10 -5 12 -3 14 7 8 9 -5 11 -4 6 3 -9 15 -10 15 -28 -5z"/>
<path d="M1015 1831 c-6 -11 13 -26 22 -17 4 3 1 6 -6 6 -7 0 -9 5 -6 10 3 6
4 10 1 10 -3 0 -7 -4 -11 -9z"/>
<path d="M1099 1829 c-7 -4 -18 -5 -25 -2 -6 2 -15 -1 -20 -8 -4 -8 -3 -10 5
-5 6 4 18 3 26 -4 9 -8 15 -8 20 0 3 6 10 8 15 5 4 -3 10 1 13 8 6 15 -15 18
-34 6z"/>
<path d="M1170 1831 c0 -6 4 -13 10 -16 6 -3 7 1 4 9 -7 18 -14 21 -14 7z"/>
<path d="M1806 1825 c6 -14 4 -16 -6 -10 -9 5 -11 4 -6 -4 4 -6 11 -9 15 -6 5
2 13 -7 20 -21 7 -15 16 -22 23 -18 8 5 9 2 5 -10 -5 -11 -3 -15 5 -10 7 5 9
2 5 -9 -4 -12 -2 -14 10 -10 10 4 14 2 10 -4 -8 -13 22 -55 34 -48 5 4 9 9 9
13 -1 13 -73 87 -83 84 -5 -2 -7 4 -3 13 3 9 2 13 -4 10 -6 -3 -10 0 -10 8 0
8 -7 20 -15 27 -13 11 -14 10 -9 -5z m112 -141 c-4 -3 -12 5 -18 18 -12 22
-12 22 6 6 10 -10 15 -20 12 -24z"/>
<path d="M1220 1810 c6 -11 13 -20 16 -20 2 0 0 9 -6 20 -6 11 -13 20 -16 20
-2 0 0 -9 6 -20z"/>
<path d="M1137 1813 c-10 -9 -9 -23 1 -23 5 0 9 7 9 15 0 17 -1 18 -10 8z"/>
<path d="M1407 1812 c-8 -16 -1 -36 13 -40 8 -3 12 -1 8 3 -4 5 -3 14 2 20 8
9 6 14 -4 18 -9 4 -17 3 -19 -1z"/>
<path d="M985 1797 c-14 -11 -15 -16 -5 -22 9 -5 11 -4 6 3 -9 15 -1 15 27 1
20 -9 20 -9 5 4 -10 8 -15 17 -11 20 11 12 -3 7 -22 -6z"/>
<path d="M1070 1797 c0 -9 -5 -17 -11 -17 -5 0 -8 4 -5 8 3 5 -1 9 -9 9 -11 0
-12 -4 -4 -13 7 -8 7 -14 -1 -19 -6 -4 -9 -13 -6 -21 3 -8 1 -14 -5 -14 -5 0
-14 10 -19 23 -6 16 -9 17 -9 5 -1 -9 5 -23 13 -31 12 -11 11 -15 -5 -26 -11
-6 -17 -16 -14 -21 8 -12 -10 -21 -29 -14 -9 3 -13 11 -9 17 3 5 2 7 -4 4 -5
-3 -8 -21 -6 -39 3 -25 2 -29 -6 -18 -10 14 -16 7 -12 -14 1 -5 -4 -4 -13 3
-11 9 -16 9 -22 0 -4 -8 -3 -9 4 -5 8 5 12 0 12 -13 0 -11 -5 -23 -10 -26 -6
-4 -7 -11 -4 -17 4 -7 2 -8 -5 -4 -9 6 -9 11 0 22 6 8 7 14 2 14 -10 0 -49
-70 -45 -83 1 -5 -2 -6 -8 -2 -5 3 -10 1 -10 -4 0 -6 5 -11 10 -11 6 0 10 -5
10 -12 0 -9 -3 -9 -12 0 -7 7 -16 12 -20 12 -12 0 -9 -35 4 -48 7 -7 8 -12 2
-12 -6 0 -16 10 -23 23 l-11 22 6 -24 c4 -14 1 -27 -7 -33 -11 -8 -10 -9 4 -4
10 3 17 0 17 -7 0 -7 6 -21 13 -32 11 -14 16 -15 22 -5 6 9 4 11 -6 5 -8 -5
-5 1 5 13 17 19 17 22 3 22 -10 0 -17 -5 -17 -12 0 -6 -3 -9 -6 -6 -3 3 0 15
7 26 11 17 10 24 -2 38 -8 10 -9 15 -2 11 14 -9 45 2 38 13 -8 13 6 40 17 34
6 -4 8 -1 6 7 -3 8 -11 13 -17 11 -7 -1 -10 2 -6 8 5 8 11 8 21 -1 11 -9 16
-6 24 15 5 14 11 26 13 26 2 0 3 -27 3 -59 0 -33 -3 -58 -8 -55 -4 3 -8 0 -8
-5 0 -6 4 -11 8 -11 4 0 8 -9 9 -20 1 -12 -4 -20 -13 -20 -9 0 -12 5 -8 12 4
7 3 8 -5 4 -13 -9 -5 -26 12 -26 7 0 13 -9 14 -19 1 -14 -3 -18 -15 -15 -15 5
-15 4 -2 -8 23 -20 19 -51 -7 -53 -18 -1 -20 1 -11 12 9 11 13 12 20 1 7 -10
9 -10 5 2 -2 8 -15 15 -28 16 -13 1 -31 4 -40 8 -13 6 -16 1 -16 -18 0 -14 3
-26 8 -26 5 0 8 5 7 11 -2 6 3 14 10 16 6 3 12 -3 12 -12 0 -9 8 -19 19 -22
12 -3 19 -14 19 -29 0 -14 -5 -21 -11 -17 -6 3 -7 1 -3 -6 10 -16 29 -3 22 16
-3 8 -1 11 4 8 6 -4 8 -17 6 -29 -5 -29 28 -106 46 -106 10 0 9 -3 -1 -9 -8
-5 -16 -17 -17 -25 -1 -9 2 -14 7 -10 5 3 7 10 4 15 -12 19 23 8 41 -13 10
-12 14 -18 7 -15 -6 4 -15 2 -19 -4 -4 -7 -3 -9 3 -6 6 4 19 -1 29 -9 10 -9
13 -12 5 -8 -9 5 -12 3 -7 -4 4 -7 15 -12 24 -12 13 0 14 -2 4 -9 -10 -6 -8
-10 10 -15 19 -5 20 -8 8 -16 -13 -8 -13 -10 1 -10 18 0 64 -49 81 -85 6 -13
14 -22 18 -20 10 6 24 -25 21 -45 -2 -8 0 -12 4 -8 4 3 15 -1 26 -10 13 -11
15 -18 7 -23 -6 -4 -13 -15 -14 -23 -1 -9 2 -14 7 -10 5 3 7 10 4 15 -13 20
20 8 46 -17 24 -23 58 -26 44 -4 -3 5 4 14 15 20 11 6 18 15 15 21 -4 5 -3 9
2 8 20 -4 27 2 13 12 -12 9 -12 10 4 5 14 -5 17 -2 12 9 -3 9 -2 14 3 10 5 -3
11 -2 13 2 1 5 19 17 38 27 l35 19 -25 -25 c-14 -14 -29 -24 -35 -24 -5 1 -9
-7 -9 -16 1 -10 -2 -16 -6 -13 -5 3 -11 1 -15 -5 -3 -5 0 -10 8 -10 14 0 47
31 47 44 0 5 11 17 25 28 14 11 23 23 20 27 -2 5 9 18 25 31 17 13 26 28 23
36 -3 8 -2 14 3 12 5 -2 11 2 14 7 2 6 17 21 33 34 15 13 26 26 23 28 -3 3 12
20 32 39 20 19 33 34 28 34 -4 0 2 9 15 20 17 14 20 19 9 20 -8 0 -1 8 15 18
34 21 87 86 78 96 -4 3 -1 6 5 6 7 0 12 7 12 16 0 8 4 13 9 9 8 -4 32 22 54
61 4 7 0 17 -9 24 -13 12 -14 10 -10 -14 3 -17 1 -24 -6 -20 -7 5 -8 2 -3 -6
5 -9 4 -11 -3 -6 -7 4 -10 2 -9 -6 2 -7 2 -10 0 -5 -7 11 -23 8 -20 -4 1 -6
-6 -13 -15 -14 -9 -2 -15 2 -12 9 2 6 -5 12 -16 13 -19 2 -19 0 -4 -23 9 -13
21 -21 28 -17 6 4 4 -1 -4 -11 -13 -17 -15 -17 -37 10 -12 16 -20 30 -18 33 3
2 -1 11 -7 20 -10 13 -10 14 1 4 14 -12 44 -6 36 7 -3 5 -1 11 4 14 5 4 12 2
16 -4 3 -5 11 -10 16 -10 5 0 2 12 -8 26 l-17 27 24 -13 25 -13 -19 22 c-11
11 -16 24 -13 28 4 3 7 2 7 -4 0 -5 7 -10 15 -10 8 0 15 3 15 6 0 8 -43 36
-52 33 -4 -1 -5 5 -1 14 5 15 7 15 15 1 5 -9 15 -14 23 -11 8 4 12 10 9 15 -3
5 -10 6 -16 3 -6 -4 -8 -2 -4 4 3 5 0 12 -6 15 -10 3 -10 8 1 21 13 15 12 17
-12 12 -15 -2 -29 0 -33 5 -3 5 -10 6 -16 3 -6 -4 -8 -2 -4 4 3 6 2 13 -3 17
-6 3 -8 12 -4 21 3 9 0 14 -8 12 -8 -2 -13 3 -11 10 1 6 -4 12 -10 12 -9 0 -8
4 2 10 13 8 12 10 -5 11 -11 1 -23 1 -28 0 -4 0 -6 2 -6 6 3 21 -3 24 -18 12
-15 -11 -16 -11 -6 0 6 7 10 19 9 25 -2 6 -1 7 2 3 2 -4 11 -2 20 5 15 11 15
11 5 -3 -12 -15 -8 -29 9 -29 4 0 7 5 6 12 -2 7 8 13 24 13 15 1 25 -2 22 -6
-2 -4 0 -10 5 -14 5 -3 8 -15 6 -26 -3 -13 0 -19 8 -16 7 2 11 13 9 23 -2 15
-1 16 7 5 5 -8 8 -26 6 -41 -3 -18 1 -27 11 -27 9 0 13 7 9 21 -5 19 -4 19 6
-1 7 -13 17 -23 23 -23 6 -1 0 -7 -14 -16 -23 -14 -23 -14 -2 -9 23 7 29 -4
11 -22 -6 -6 -7 -13 -2 -16 4 -3 16 5 25 17 16 22 15 24 -5 47 -12 13 -38 44
-58 69 -77 95 -91 107 -84 71 3 -16 -1 -19 -23 -17 -15 1 -36 -2 -47 -8 -29
-15 -53 -17 -60 -6 -3 5 -13 6 -22 3 -12 -5 -15 -2 -11 9 4 8 2 21 -4 29 -8
11 -8 9 -4 -6 6 -19 5 -19 -7 -3 -8 10 -17 15 -20 12 -3 -4 -12 5 -18 20 -20
43 -31 34 -31 -24 0 -35 2 -41 12 -35 6 3 10 1 10 -5 0 -6 5 -8 11 -4 8 4 4
11 -11 19 -17 9 -19 14 -9 18 12 5 12 7 0 15 -8 6 -9 12 -3 16 5 3 15 -8 22
-24 7 -16 16 -28 20 -25 4 3 13 -2 20 -11 7 -8 20 -12 29 -9 11 3 10 0 -3 -10
-11 -8 -18 -15 -15 -16 2 0 12 -2 22 -4 9 -2 17 1 17 5 0 5 9 8 19 7 16 -1 18
-4 8 -16 -10 -12 -9 -14 6 -8 10 4 16 3 12 -2 -3 -5 -1 -12 5 -16 5 -3 10 -1
10 4 0 6 5 11 11 11 8 0 7 -5 -1 -15 -9 -11 -16 -13 -24 -5 -19 19 -29 10 -11
-10 10 -11 15 -23 12 -27 -4 -3 -7 -1 -7 6 0 7 -4 10 -10 6 -5 -3 -7 -12 -3
-20 6 -17 -22 -21 -32 -5 -3 6 -11 10 -17 10 -7 0 -7 -4 1 -13 6 -8 7 -18 3
-22 -4 -5 2 -5 13 -1 15 5 12 0 -9 -19 -17 -14 -36 -23 -42 -21 -8 3 -11 -1
-7 -9 4 -11 10 -12 26 -4 21 10 21 9 3 -5 -13 -11 -24 -12 -36 -6 -17 9 -30 4
-30 -12 0 -4 3 -7 8 -7 26 4 34 -1 22 -15 -6 -8 -19 -12 -28 -9 -14 5 -15 3
-4 -8 6 -7 12 -18 12 -23 0 -6 -5 -3 -11 6 -5 9 -16 15 -24 12 -8 -4 -12 -10
-9 -15 3 -5 10 -6 16 -3 6 4 3 -7 -8 -24 -11 -20 -21 -27 -25 -20 -4 6 -5 16
-3 23 3 6 -2 12 -11 12 -19 0 -19 -1 0 -37 14 -27 14 -29 -2 -23 -10 4 -14 2
-10 -4 4 -6 -1 -19 -10 -29 -10 -10 -19 -21 -19 -26 -1 -4 -2 -11 -3 -14 0 -4
-8 -1 -16 6 -9 8 -15 9 -15 2 0 -6 5 -14 10 -17 6 -4 8 -11 4 -16 -3 -5 -9 -7
-14 -4 -4 3 -11 -3 -15 -13 -6 -15 -8 -15 -26 7 -21 26 -25 46 -7 35 7 -4 8
-3 4 4 -4 6 -13 9 -21 5 -21 -7 -19 14 3 26 9 6 12 11 5 11 -6 0 -15 -4 -18
-10 -3 -5 -11 -10 -17 -10 -7 0 -6 5 1 14 9 11 9 16 0 22 -8 4 -9 3 -5 -4 9
-16 -7 -15 -22 0 -17 17 -15 29 3 22 8 -4 15 -1 15 4 0 6 -9 9 -20 7 -18 -3
-28 6 -93 85 -7 8 -11 21 -9 28 2 9 -1 11 -9 6 -9 -5 -10 -2 -6 9 4 11 2 14
-7 11 -8 -3 -17 0 -22 7 -4 7 -3 10 4 5 6 -3 14 -1 18 5 5 8 3 9 -5 5 -8 -5
-29 10 -57 40 -41 45 -51 72 -26 67 5 -1 8 7 5 17 -3 12 0 20 6 20 7 0 10 -4
7 -8 -2 -4 4 -9 15 -9 10 -1 19 2 19 8 0 5 -4 8 -9 7 -5 -2 -9 0 -10 5 -3 26
1 36 19 42 11 4 18 11 15 16 -4 5 -2 9 3 9 5 0 8 11 7 25 -2 14 0 23 5 20 4
-3 13 2 20 11 10 11 10 18 2 26 -9 9 -12 8 -12 -5z m631 -104 c13 -16 12 -17
-3 -4 -10 7 -18 15 -18 17 0 8 8 3 21 -13z m-36 -146 c0 -7 9 -11 20 -9 15 2
17 1 6 -6 -9 -6 -10 -12 -3 -16 6 -4 9 -13 6 -21 -4 -10 0 -13 13 -10 11 2 20
-2 20 -8 1 -22 8 -42 18 -50 6 -5 -1 -5 -15 -1 -22 6 -23 5 -11 -10 7 -9 10
-16 6 -16 -4 0 -1 -8 6 -17 12 -16 12 -17 -1 -7 -11 8 -22 7 -40 -2 -15 -9
-19 -14 -10 -15 10 0 11 -2 2 -6 -6 -2 -10 -8 -8 -12 3 -4 -1 -8 -9 -8 -8 0
-15 4 -15 9 0 4 6 8 13 8 9 0 8 3 -2 9 -11 7 -9 10 9 16 22 7 22 7 2 21 -20
14 -27 54 -9 54 4 0 5 6 0 13 -9 13 -12 109 -3 101 3 -3 5 -11 5 -17z m50
-265 c-9 -9 34 -33 48 -27 6 4 1 -3 -12 -14 -13 -12 -20 -21 -16 -21 5 0 0 -9
-10 -20 -13 -14 -21 -17 -31 -9 -8 7 -14 7 -19 -1 -3 -5 0 -10 7 -10 8 0 7 -4
-4 -11 -10 -5 -15 -16 -11 -25 5 -13 2 -15 -16 -9 -21 6 -22 5 -11 -15 7 -12
8 -20 2 -16 -5 3 -13 -1 -16 -10 -3 -8 -10 -13 -15 -9 -5 3 -12 1 -16 -5 -3
-5 0 -10 7 -11 7 0 3 -5 -9 -11 -13 -6 -23 -15 -23 -20 0 -5 6 -6 13 -3 6 4
-1 -5 -18 -20 -16 -14 -29 -31 -27 -37 2 -8 -1 -8 -11 1 -19 15 -31 -11 -14
-29 9 -10 9 -11 0 -6 -7 4 -13 2 -13 -3 0 -6 -7 -11 -17 -11 -9 0 -13 -3 -10
-6 6 -6 -65 -64 -77 -64 -3 0 7 12 22 27 15 15 31 26 36 25 5 -2 6 4 2 13 -3
9 -2 14 3 11 7 -5 21 14 25 34 3 16 58 58 70 54 9 -4 13 2 11 20 -3 19 0 23
13 18 15 -5 15 -4 3 11 -12 15 -10 22 4 15 3 -2 14 12 25 30 11 17 25 32 31
32 6 0 9 6 6 14 -8 20 36 49 51 34 8 -8 11 -5 9 11 -2 25 -6 26 -34 6 -19 -14
-21 -13 -18 3 2 9 4 17 5 17 1 0 3 9 5 20 2 11 11 25 19 31 9 6 12 15 8 20 -4
4 1 2 11 -5 9 -8 15 -16 12 -19z"/>
<path d="M1665 1498 c1 -19 6 -32 13 -30 7 1 12 -3 12 -10 0 -6 3 -8 7 -5 3 4
13 1 21 -6 13 -10 14 -9 3 10 -6 13 -17 22 -24 20 -7 -1 -12 6 -12 15 0 10 -5
22 -11 28 -8 8 -11 2 -9 -22z"/>
<path d="M1665 1432 c-4 -10 1 -22 12 -29 19 -15 36 -13 31 2 -2 6 -6 9 -10 8
-5 -2 -8 2 -8 8 0 5 -5 7 -12 3 -7 -4 -8 -3 -4 4 4 6 13 9 21 5 8 -3 15 -1 15
4 0 16 -38 12 -45 -5z"/>
<path d="M1690 1280 c-8 -5 -10 -10 -5 -10 6 0 3 -5 -5 -10 -13 -8 -13 -10 -1
-10 11 0 9 -4 -5 -16 -18 -15 -18 -15 3 -5 12 6 28 8 36 5 24 -9 30 14 7 26
-11 6 -18 15 -15 21 8 11 4 11 -15 -1z m30 -30 c8 -5 11 -10 5 -10 -5 0 -17 5
-25 10 -8 5 -10 10 -5 10 6 0 17 -5 25 -10z"/>
<path d="M1616 1115 c-9 -26 -7 -32 5 -12 6 10 9 21 6 23 -2 3 -7 -2 -11 -11z"/>
<path d="M1529 1003 c-13 -16 -12 -17 4 -4 16 13 21 21 13 21 -2 0 -10 -8 -17
-17z"/>
<path d="M1105 1800 c-3 -5 -1 -10 4 -10 6 0 11 5 11 10 0 6 -2 10 -4 10 -3 0
-8 -4 -11 -10z"/>
<path d="M1167 1799 c7 -7 15 -10 18 -7 3 3 -2 9 -12 12 -14 6 -15 5 -6 -5z"/>
<path d="M1376 1794 c-4 -10 -12 -14 -24 -9 -12 4 -11 1 6 -15 12 -11 22 -24
22 -29 0 -13 29 -9 34 5 3 7 -2 18 -9 24 -8 7 -13 16 -10 20 3 5 1 11 -4 14
-5 3 -12 -1 -15 -10z m34 -38 c0 -10 -30 0 -34 11 -4 11 -1 11 14 3 11 -6 20
-12 20 -14z"/>
<path d="M714 1768 c-53 -62 -56 -66 -43 -74 8 -5 10 -3 5 5 -6 8 -2 11 10 9
15 -2 18 2 17 20 -2 14 1 21 7 17 6 -4 9 -1 8 6 -2 6 3 14 11 17 9 3 11 0 6
-8 -5 -8 -4 -11 3 -6 6 4 9 13 5 21 -7 19 -6 19 -29 -7z"/>
<path d="M953 1760 c0 -16 4 -30 8 -30 8 0 5 47 -3 55 -3 3 -5 -8 -5 -25z"/>
<path d="M1074 1758 c-16 -17 -16 -18 -1 -12 9 3 17 10 17 15 0 6 9 5 20 -1
11 -6 20 -7 20 -2 0 20 -39 20 -56 0z"/>
<path d="M1150 1771 c13 -10 13 -12 0 -22 -13 -9 -13 -10 0 -6 8 2 15 10 15
17 0 7 -7 15 -15 17 -13 4 -13 3 0 -6z"/>
<path d="M1181 1777 c2 -1 13 -9 24 -17 19 -14 19 -14 6 3 -7 9 -18 17 -24 17
-6 0 -8 -1 -6 -3z"/>
<path d="M925 1760 c-3 -5 -1 -10 4 -10 6 0 11 5 11 10 0 6 -2 10 -4 10 -3 0
-8 -4 -11 -10z"/>
<path d="M1565 1761 c-8 -13 12 -24 28 -15 8 5 8 2 -2 -9 -8 -10 -9 -17 -3
-17 6 0 17 -2 25 -5 8 -4 14 0 14 9 0 8 -5 12 -10 9 -6 -4 -8 1 -4 11 4 9 3
14 -2 11 -5 -3 -12 -1 -16 5 -8 13 -22 13 -30 1z"/>
<path d="M1079 1738 c-6 -21 -5 -38 1 -38 5 0 8 9 7 20 -1 17 -5 26 -8 18z"/>
<path d="M979 1728 c-7 -16 -5 -58 2 -58 6 0 8 4 5 9 -3 5 1 14 9 21 15 12 12
30 -6 30 -5 0 -10 -1 -10 -2z m21 -12 c0 -3 -4 -8 -10 -11 -5 -3 -10 -1 -10 4
0 6 5 11 10 11 6 0 10 -2 10 -4z"/>
<path d="M1136 1715 c4 -8 8 -15 10 -15 2 0 4 7 4 15 0 8 -4 15 -10 15 -5 0
-7 -7 -4 -15z"/>
<path d="M1165 1720 c-3 -6 1 -7 9 -4 18 7 21 14 7 14 -6 0 -13 -4 -16 -10z"/>
<path d="M910 1691 c0 -6 4 -13 10 -16 6 -3 7 1 4 9 -7 18 -14 21 -14 7z"/>
<path d="M635 1680 c-8 -13 3 -30 18 -29 9 0 9 2 0 6 -7 2 -13 9 -13 14 0 4 7
5 17 2 11 -4 14 -3 9 5 -9 15 -23 15 -31 2z"/>
<path d="M874 1683 c4 -6 1 -13 -6 -15 -7 -3 -2 -7 10 -10 12 -4 25 -1 29 5 3
7 3 9 -2 5 -4 -4 -14 0 -22 10 -8 9 -12 12 -9 5z"/>
<path d="M1050 1686 c0 -2 7 -7 16 -10 8 -3 12 -2 9 4 -6 10 -25 14 -25 6z"/>
<path d="M1090 1686 c0 -2 7 -7 16 -10 8 -3 12 -2 9 4 -6 10 -25 14 -25 6z"/>
<path d="M1483 1678 c3 -9 -1 -22 -9 -29 -13 -10 -13 -14 1 -29 11 -12 12 -19
3 -28 -7 -7 -8 -12 -3 -12 5 0 -4 -13 -20 -30 -16 -16 -24 -30 -17 -30 6 0 13
4 17 10 3 5 11 8 18 6 7 -1 9 -1 5 1 -5 3 -8 9 -8 15 0 6 7 5 16 -3 14 -11 13
-15 -7 -30 -13 -9 -29 -15 -37 -12 -7 3 -26 -8 -42 -26 -16 -17 -25 -31 -19
-31 5 0 9 -4 9 -10 0 -5 -4 -9 -8 -7 -5 1 -28 -17 -52 -40 -23 -24 -46 -43
-51 -43 -5 0 -9 -5 -9 -11 0 -8 5 -8 15 1 13 11 15 9 13 -11 -2 -13 -10 -29
-18 -36 -8 -6 -12 -15 -7 -19 4 -4 7 -2 7 4 0 7 4 12 8 12 5 0 7 -13 4 -28 -3
-21 0 -29 12 -29 10 0 13 4 7 11 -9 12 -9 65 1 81 3 6 4 18 3 28 -3 18 10 23
20 7 3 -5 2 -10 -4 -10 -5 0 -8 -8 -6 -17 2 -10 4 -20 4 -23 1 -3 5 1 10 9 5
8 8 23 6 33 -2 10 0 18 6 18 5 0 7 -14 4 -32 -8 -41 -16 -53 -25 -38 -4 7 -10
8 -13 3 -4 -6 1 -19 9 -29 9 -10 13 -14 10 -8 -3 6 3 19 14 29 11 10 17 21 15
26 -3 4 -1 11 5 14 8 5 6 15 -5 31 -9 13 -11 25 -5 25 37 5 45 2 43 -15 -1
-13 2 -15 10 -7 6 6 7 15 1 23 -5 7 -9 22 -9 33 0 11 -4 24 -10 28 -6 5 -2 6
9 3 13 -4 17 -2 13 8 -5 14 10 36 25 36 4 0 8 -4 8 -10 0 -5 -6 -9 -12 -7 -7
1 -12 -4 -10 -12 1 -7 -2 -19 -8 -25 -5 -7 -7 -16 -3 -19 9 -10 34 13 27 25
-8 12 16 39 27 32 5 -3 8 0 7 8 -2 7 4 13 12 13 24 1 38 14 35 33 -1 10 -9 16
-21 14 -16 -2 -15 1 6 17 28 23 41 26 38 10 -2 -6 4 -14 12 -16 12 -4 12 -3 2
5 -11 7 -11 10 3 16 20 7 10 28 -13 24 -11 -2 -17 3 -16 14 1 10 -2 16 -6 13
-8 -5 -32 19 -26 26 2 2 -3 11 -12 19 -14 13 -15 12 -9 -2z m2 -39 c-4 -6 -1
-9 7 -7 7 2 15 -1 17 -7 1 -5 7 -16 13 -22 6 -7 8 -13 4 -13 -3 0 -8 0 -11 0
-3 0 -4 2 -2 5 1 2 -8 12 -21 20 -19 14 -23 35 -6 35 3 0 2 -5 -1 -11z m10
-58 c3 -5 2 -12 -3 -15 -5 -3 -9 1 -9 9 0 17 3 19 12 6z m-121 -166 c-4 -8
-11 -15 -16 -15 -6 0 -5 6 2 15 7 8 14 15 16 15 2 0 1 -7 -2 -15z"/>
<path d="M1031 1675 c0 -5 4 -17 9 -25 7 -11 10 -11 10 -2 0 7 5 10 12 6 7 -4
8 -3 4 5 -4 6 -11 9 -16 6 -4 -3 -11 1 -13 7 -3 7 -6 9 -6 3z"/>
<path d="M1935 1670 c-3 -5 -1 -10 4 -10 6 0 11 5 11 10 0 6 -2 10 -4 10 -3 0
-8 -4 -11 -10z"/>
<path d="M1079 1648 c-6 -13 -8 -20 -4 -16 4 4 14 0 22 -10 13 -15 13 -15 4 5
-14 28 -14 36 1 27 7 -4 8 -3 4 4 -10 17 -14 15 -27 -10z"/>
<path d="M1680 1660 c13 -8 13 -10 1 -10 -11 0 -9 -4 5 -15 10 -8 15 -15 11
-15 -4 0 1 -10 13 -22 12 -14 16 -24 10 -28 -7 -4 -5 -12 6 -20 24 -21 40 -20
41 1 1 11 -2 17 -7 14 -12 -7 -48 47 -45 68 2 9 -5 22 -15 27 -24 13 -40 13
-20 0z m64 -106 c3 -8 2 -12 -4 -9 -6 3 -10 10 -10 16 0 14 7 11 14 -7z"/>
<path d="M617 1644 c4 -11 2 -15 -4 -11 -6 4 -17 -1 -24 -11 -13 -15 -12 -16
4 -3 20 15 23 2 5 -18 -11 -11 -9 -11 7 -1 22 13 30 46 14 55 -5 4 -6 -2 -2
-11z"/>
<path d="M1955 1650 c-4 -6 -12 -7 -18 -4 -7 4 -8 3 -4 -2 5 -5 14 -9 20 -9 5
0 12 -6 15 -14 3 -8 0 -11 -7 -7 -18 11 -13 0 7 -15 9 -7 14 -9 10 -5 -4 5 -3
15 2 21 8 9 6 14 -5 19 -9 3 -13 10 -10 16 3 5 4 10 1 10 -3 0 -8 -5 -11 -10z"/>
<path d="M845 1640 c-3 -6 1 -7 9 -4 18 7 21 14 7 14 -6 0 -13 -4 -16 -10z"/>
<path d="M1550 1630 c-8 -15 -8 -18 3 -14 8 3 14 11 14 19 0 20 -4 19 -17 -5z"/>
<path d="M816 1623 c-6 -14 -5 -15 5 -6 7 7 10 15 7 18 -3 3 -9 -2 -12 -12z"/>
<path d="M854 1615 c-3 -8 -2 -20 2 -26 5 -9 2 -10 -9 -6 -10 3 -17 2 -17 -4
0 -25 33 -2 34 24 2 30 -2 34 -10 12z"/>
<path d="M1073 1599 c-2 -23 3 -25 10 -4 4 8 3 16 -1 19 -4 3 -9 -4 -9 -15z"/>
<path d="M1025 1597 c-15 -12 -16 -15 -4 -22 8 -5 10 -4 6 0 -4 5 3 15 15 22
13 7 18 12 12 13 -5 0 -18 -6 -29 -13z"/>
<path d="M1993 1592 c0 -12 4 -20 7 -20 18 2 23 -4 10 -12 -9 -6 -10 -10 -3
-10 21 0 23 17 3 40 -18 21 -19 21 -17 2z"/>
<path d="M553 1575 c-12 -14 -17 -25 -12 -25 6 0 7 -6 3 -12 -4 -8 -3 -10 2
-5 5 5 10 13 10 18 3 22 5 23 13 11 7 -11 9 -10 14 3 5 11 3 14 -5 9 -8 -5 -9
-2 -5 9 8 22 6 21 -20 -8z"/>
<path d="M990 1581 c0 -6 4 -13 10 -16 6 -3 7 1 4 9 -7 18 -14 21 -14 7z"/>
<path d="M771 1571 c-8 -5 -9 -11 -3 -15 5 -3 12 1 16 9 6 17 6 18 -13 6z"/>
<path d="M802 1560 c-18 -29 -15 -38 4 -12 9 13 14 25 12 27 -2 2 -9 -5 -16
-15z"/>
<path d="M1035 1560 c-2 -3 5 -7 16 -7 10 -1 19 2 19 6 0 9 -29 10 -35 1z"/>
<path d="M835 1549 c-4 -6 -5 -12 -2 -15 2 -3 7 2 10 11 7 17 1 20 -8 4z"/>
<path d="M749 1534 c6 -12 7 -24 3 -28 -3 -4 1 -4 11 0 9 3 17 11 17 17 0 6
-3 7 -7 4 -3 -4 -12 1 -20 11 -13 15 -13 15 -4 -4z"/>
<path d="M1010 1544 c0 -2 9 -8 20 -14 11 -6 20 -7 20 -2 0 6 -9 12 -20 15
-11 3 -20 3 -20 1z"/>
<path d="M1110 1540 c0 -5 5 -10 10 -10 6 0 10 5 10 10 0 6 -4 10 -10 10 -5 0
-10 -4 -10 -10z"/>
<path d="M2026 1542 c-2 -4 5 -19 15 -32 15 -18 18 -19 11 -5 -5 11 -7 26 -5
33 5 13 -13 17 -21 4z"/>
<path d="M521 1527 c-1 -12 -6 -16 -13 -11 -10 5 -10 4 -1 -6 16 -17 26 -8 20
17 -4 17 -5 17 -6 0z"/>
<path d="M812 1520 c0 -14 2 -19 5 -12 2 6 2 18 0 25 -3 6 -5 1 -5 -13z"/>
<path d="M1080 1519 c0 -5 5 -7 12 -3 8 5 9 1 4 -12 -5 -14 -4 -16 5 -7 6 6 8
16 5 22 -9 14 -26 14 -26 0z"/>
<path d="M1140 1520 c0 -5 5 -10 11 -10 5 0 7 5 4 10 -3 6 -8 10 -11 10 -2 0
-4 -4 -4 -10z"/>
<path d="M1826 1522 c-2 -4 0 -14 6 -22 8 -12 9 -11 4 5 -5 16 -3 16 13 -5 11
-13 17 -27 13 -30 -13 -10 -13 -32 0 -27 7 2 12 10 10 16 -1 7 2 10 8 6 8 -5
7 -11 -1 -21 -9 -11 -8 -14 2 -14 9 0 10 -3 4 -8 -14 -10 -17 -32 -5 -32 11 0
12 2 14 52 1 20 -1 36 -5 35 -4 -1 -8 3 -9 8 -2 13 -31 45 -41 45 -4 0 -10 -4
-13 -8z"/>
<path d="M2060 1521 c0 -6 4 -13 10 -16 6 -3 7 1 4 9 -7 18 -14 21 -14 7z"/>
<path d="M715 1510 c-3 -5 -1 -10 4 -10 6 0 11 5 11 10 0 6 -2 10 -4 10 -3 0
-8 -4 -11 -10z"/>
<path d="M1112 1490 c-18 -29 -15 -38 4 -12 9 13 14 25 12 27 -2 2 -9 -5 -16
-15z"/>
<path d="M1810 1480 c19 -17 31 -30 25 -29 -5 1 -19 1 -29 0 -19 -1 -19 -1 -1
-14 19 -15 12 -42 -8 -31 -8 5 -8 3 1 -7 17 -19 15 -32 -4 -25 -14 5 -15 4 -5
-8 15 -18 -4 -33 -23 -17 -9 8 -13 7 -13 -3 0 -9 9 -13 23 -11 29 3 56 24 48
37 -3 5 1 17 10 27 15 17 15 19 1 24 -8 4 -15 11 -15 17 0 6 7 4 16 -4 8 -9
21 -16 27 -16 7 0 4 5 -5 10 -11 7 -15 19 -12 37 3 15 2 24 -2 20 -4 -4 -13
-2 -21 4 -7 6 -13 8 -13 4 0 -4 -8 -2 -17 5 -10 7 -2 -2 17 -20z"/>
<path d="M495 1473 c-13 -31 -12 -51 2 -46 10 4 11 9 3 18 -7 8 -7 15 -1 19 5
3 11 0 14 -6 3 -7 4 -3 4 10 -1 26 -12 29 -22 5z"/>
<path d="M695 1481 c-3 -5 -2 -12 3 -15 5 -3 9 1 9 9 0 17 -3 19 -12 6z"/>
<path d="M726 1482 c-3 -5 1 -9 9 -9 8 0 15 4 15 9 0 4 -4 8 -9 8 -6 0 -12 -4
-15 -8z"/>
<path d="M765 1480 c-3 -5 -1 -10 4 -10 6 0 11 5 11 10 0 6 -2 10 -4 10 -3 0
-8 -4 -11 -10z"/>
<path d="M2069 1488 c-7 -23 -5 -37 4 -31 6 4 8 1 5 -8 -3 -8 0 -23 8 -34 8
-10 14 -14 14 -8 0 7 -4 14 -9 17 -5 3 -7 19 -5 36 2 16 -1 30 -6 30 -6 0 -10
-1 -11 -2z"/>
<path d="M1165 1459 c-4 -6 -4 -13 -1 -16 3 -4 6 -1 6 6 0 7 5 9 12 5 7 -4 8
-3 4 4 -9 15 -13 15 -21 1z"/>
<path d="M873 1434 c0 -17 2 -22 7 -13 5 6 6 18 3 26 -8 19 -10 16 -10 -13z"/>
<path d="M705 1440 c3 -5 8 -10 11 -10 2 0 4 5 4 10 0 6 -5 10 -11 10 -5 0 -7
-4 -4 -10z"/>
<path d="M1126 1435 c13 -10 15 -14 5 -15 -8 0 -12 -3 -8 -6 3 -3 11 -3 17 1
13 8 -5 35 -23 35 -6 0 -2 -7 9 -15z"/>
<path d="M697 1409 c4 -13 8 -18 11 -10 2 7 -1 18 -6 23 -8 8 -9 4 -5 -13z"/>
<path d="M750 1421 c0 -6 4 -13 10 -16 6 -3 7 1 4 9 -7 18 -14 21 -14 7z"/>
<path d="M1148 1408 c-10 -10 -14 -18 -9 -18 10 0 36 29 30 34 -2 1 -12 -6
-21 -16z"/>
<path d="M1192 1410 c-18 -29 -15 -38 4 -12 9 13 14 25 12 27 -2 2 -9 -5 -16
-15z"/>
<path d="M495 1410 c-3 -6 1 -7 9 -4 18 7 21 14 7 14 -6 0 -13 -4 -16 -10z"/>
<path d="M2065 1400 c2 -12 1 -28 -2 -36 -5 -13 -8 -13 -15 -2 -6 9 -7 6 -3
-9 5 -19 3 -22 -12 -17 -14 5 -15 4 -3 -4 8 -6 19 -8 25 -4 5 3 -3 -10 -20
-30 -16 -19 -33 -33 -38 -31 -4 2 -5 9 -2 14 14 21 -12 6 -33 -21 -19 -24 -20
-28 -5 -26 10 2 19 8 19 14 3 25 5 27 14 12 5 -8 5 -17 1 -20 -5 -3 -37 -41
-71 -85 -35 -44 -66 -82 -70 -85 -3 -3 -14 -16 -23 -29 -14 -21 -17 -22 -23
-8 -4 13 -9 14 -19 4 -7 -7 -11 -16 -8 -21 3 -4 10 -2 15 5 7 10 8 9 3 -6 -10
-30 -68 -104 -83 -105 -7 0 -11 4 -7 9 3 5 0 13 -7 17 -7 4 -10 3 -5 -1 4 -5
-1 -17 -10 -27 -9 -10 -18 -29 -20 -41 -2 -17 -1 -19 7 -7 5 8 10 10 10 5 0
-6 -8 -17 -17 -26 -10 -8 -25 -26 -34 -39 -15 -23 -18 -23 -35 -10 -17 14 -18
13 -6 -1 13 -17 6 -53 -9 -43 -5 3 -9 10 -9 15 0 6 5 7 12 3 7 -5 8 -3 3 6 -6
10 -11 9 -22 -5 -7 -11 -13 -23 -13 -28 0 -4 -4 -5 -10 -2 -6 4 -7 -1 -3 -11
5 -13 3 -15 -7 -9 -8 5 -11 4 -6 -3 3 -5 0 -13 -6 -15 -10 -4 -10 -6 0 -6 7
-1 21 14 32 32 11 17 20 25 20 17 -1 -19 -35 -60 -50 -60 -6 0 -10 -5 -8 -12
5 -15 -50 -78 -66 -75 -6 1 -15 7 -19 12 -5 6 -7 4 -4 -5 2 -8 -3 -21 -10 -28
-10 -10 -11 -18 -3 -27 13 -16 -11 -38 -37 -33 -10 2 -18 -3 -17 -9 4 -45 -12
-43 278 -43 l274 0 81 101 81 101 0 350 c-1 253 2 354 11 364 9 11 9 14 0 14
-7 0 -10 4 -6 9 3 5 1 12 -4 16 -6 3 -8 -4 -6 -15z m-363 -508 c-7 -2 -10 -8
-7 -13 4 -5 -1 -6 -10 -3 -12 5 -13 10 -4 20 6 8 16 11 22 7 8 -5 7 -8 -1 -11z
m-262 -327 c-7 -8 -17 -15 -23 -15 -5 0 -2 9 8 20 21 23 35 19 15 -5z m-60
-76 c0 -6 -4 -7 -10 -4 -5 3 -10 11 -10 16 0 6 5 7 10 4 6 -3 10 -11 10 -16z"/>
<path d="M1845 1401 c-3 -6 5 -15 17 -22 20 -11 21 -10 11 3 -7 8 -10 18 -6
21 3 4 1 7 -5 7 -6 0 -13 -4 -17 -9z"/>
<path d="M499 1383 c-10 -11 -10 -14 -1 -9 8 5 12 1 12 -11 0 -10 0 -169 0
-353 0 -303 1 -337 17 -360 10 -14 76 -97 147 -185 71 -88 177 -220 235 -292
l106 -133 273 0 c149 0 272 3 272 6 0 3 -28 41 -63 83 -71 86 -195 239 -211
260 -9 12 -8 13 4 6 12 -7 13 -6 3 6 -10 12 -8 18 7 32 23 20 34 22 24 5 -4
-7 -3 -8 5 -4 6 4 9 12 6 17 -4 5 -2 9 4 9 6 0 7 8 4 17 -5 12 -8 13 -11 4 -3
-8 -18 -26 -35 -41 l-31 -28 -31 42 c-16 22 -33 43 -37 44 -5 2 -8 10 -8 18 0
9 -4 12 -10 9 -6 -3 -7 1 -4 9 3 9 11 13 18 9 6 -4 5 1 -3 10 -12 15 -31 15
-31 1 0 -3 5 -2 12 2 7 4 8 3 4 -5 -4 -6 -12 -9 -17 -5 -6 3 -8 9 -5 12 3 3
-3 12 -14 19 -11 8 -17 19 -14 25 4 7 10 5 16 -6 5 -9 14 -16 19 -16 13 0 -21
34 -35 36 -36 4 -37 4 -26 23 14 27 13 38 -3 17 -12 -16 -14 -15 -36 8 -14 15
-21 26 -16 26 5 0 0 6 -11 14 -19 15 -19 15 1 12 11 -2 19 -10 19 -20 -1 -8 3
-13 9 -9 6 4 7 1 2 -7 -5 -9 -4 -11 4 -6 16 11 -8 48 -34 52 -10 1 -25 9 -33
18 -13 12 -13 18 -2 30 8 11 9 16 1 16 -6 0 -11 -4 -11 -10 0 -5 -5 -10 -11
-10 -6 0 -8 8 -5 18 3 9 -1 28 -9 42 -13 24 -14 24 -12 3 1 -13 5 -23 9 -23 4
0 8 -5 8 -11 0 -8 -5 -8 -15 1 -8 7 -13 16 -10 20 3 4 -5 10 -16 13 -12 3 -18
10 -14 16 3 6 -1 14 -10 17 -9 4 -13 13 -10 24 3 10 0 24 -8 31 -7 8 -18 23
-25 34 -9 16 -11 16 -12 4 0 -9 9 -24 20 -34 11 -10 20 -23 20 -29 0 -6 -10 0
-23 14 -39 43 -67 82 -67 94 0 6 5 4 10 -4 5 -8 10 -10 10 -5 0 6 -9 24 -20
40 -11 17 -20 24 -20 18 0 -20 4 -28 13 -25 10 3 9 -16 -2 -22 -11 -7 -25 21
-25 51 -1 13 -4 23 -8 23 -5 0 -11 0 -14 0 -4 0 -1 -7 6 -15 7 -9 8 -15 2 -15
-13 0 -23 26 -16 44 3 8 1 17 -5 21 -7 3 -8 0 -5 -9 3 -9 1 -16 -4 -16 -6 0
-14 9 -17 20 -4 12 -11 17 -18 14 -7 -4 -9 -4 -5 1 4 4 0 14 -10 21 -16 12
-16 13 0 19 15 6 14 9 -5 28 -12 12 -26 21 -31 19 -5 -2 -16 0 -24 3 -12 4
-12 8 -1 22 8 9 9 14 3 10 -14 -8 -67 31 -59 43 3 5 -4 14 -15 20 -11 6 -20
16 -20 23 0 8 3 8 9 -2 6 -9 11 -10 15 -2 4 6 2 11 -4 11 -6 0 -8 5 -4 12 5 7
3 8 -6 3 -10 -6 -12 -4 -7 8 3 10 2 17 -4 17 -6 0 -7 5 -4 10 10 16 -1 11 -16
-7z m160 -195 c12 -16 11 -18 -3 -18 -10 0 -14 5 -11 10 3 6 1 10 -5 10 -6 0
-8 5 -5 11 4 6 8 9 9 7 1 -2 8 -11 15 -20z"/>
<path d="M860 1390 c-8 -5 -10 -10 -5 -10 6 0 17 5 25 10 8 5 11 10 5 10 -5 0
-17 -5 -25 -10z"/>
<path d="M750 1379 c0 -5 5 -7 10 -4 6 3 10 8 10 11 0 2 -4 4 -10 4 -5 0 -10
-5 -10 -11z"/>
<path d="M797 1370 c10 -11 19 -20 21 -20 1 0 -2 9 -8 20 -6 11 -15 20 -20 20
-6 0 -2 -9 7 -20z"/>
<path d="M1155 1380 c-3 -5 -1 -10 4 -10 6 0 11 5 11 10 0 6 -2 10 -4 10 -3 0
-8 -4 -11 -10z"/>
<path d="M1243 1375 c-3 -9 -3 -18 -1 -21 3 -3 8 4 11 16 6 23 -1 27 -10 5z"/>
<path d="M731 1364 c0 -11 3 -14 6 -6 3 7 2 16 -1 19 -3 4 -6 -2 -5 -13z"/>
<path d="M868 1373 c-15 -4 -26 -23 -14 -23 2 0 11 -3 20 -6 11 -4 14 0 13 15
-1 12 -1 20 -2 20 0 -1 -8 -3 -17 -6z"/>
<path d="M760 1355 c-19 -22 -8 -25 13 -3 9 10 13 18 8 18 -5 0 -14 -7 -21
-15z"/>
<path d="M790 1341 c0 -10 19 -25 25 -20 1 2 -3 10 -11 17 -8 7 -14 8 -14 3z"/>
<path d="M772 1316 c1 -14 5 -23 9 -20 7 4 0 44 -7 44 -2 0 -3 -11 -2 -24z"/>
<path d="M1250 1325 c0 -8 4 -15 10 -15 5 0 7 7 4 15 -4 8 -8 15 -10 15 -2 0
-4 -7 -4 -15z"/>
<path d="M560 1305 c7 -8 9 -15 5 -15 -4 0 -2 -7 5 -15 7 -8 22 -15 34 -14 19
1 18 2 -4 8 -14 4 -26 12 -26 19 -1 7 -2 17 -3 22 0 6 -6 10 -12 10 -8 0 -8
-5 1 -15z"/>
<path d="M2011 1311 c-8 -5 -9 -11 -3 -15 5 -3 12 1 16 9 6 17 6 18 -13 6z"/>
<path d="M830 1272 c16 -10 25 -25 23 -37 l-3 -20 9 20 c7 15 4 24 -13 37 -11
10 -25 18 -31 18 -5 0 1 -8 15 -18z"/>
<path d="M851 1287 c2 -1 13 -9 24 -17 19 -14 19 -14 6 3 -7 9 -18 17 -24 17
-6 0 -8 -1 -6 -3z"/>
<path d="M806 1262 c-3 -5 1 -9 9 -9 8 0 12 4 9 9 -3 4 -7 8 -9 8 -2 0 -6 -4
-9 -8z"/>
<path d="M620 1230 c-9 -6 -10 -10 -3 -10 6 0 15 5 18 10 8 12 4 12 -15 0z"/>
<path d="M870 1220 c0 -5 5 -10 10 -10 6 0 10 5 10 10 0 6 -4 10 -10 10 -5 0
-10 -4 -10 -10z"/>
<path d="M900 1205 c0 -8 4 -15 10 -15 5 0 7 7 4 15 -4 8 -8 15 -10 15 -2 0
-4 -7 -4 -15z"/>
<path d="M1914 1209 c-8 -14 13 -18 30 -6 16 12 16 13 -4 13 -12 0 -23 -4 -26
-7z"/>
<path d="M873 1185 c0 -8 4 -15 9 -15 4 0 8 4 8 9 0 6 -4 12 -8 15 -5 3 -9 -1
-9 -9z"/>
<path d="M1896 1182 c-10 -16 9 -30 21 -17 10 10 9 14 -2 19 -8 3 -16 2 -19
-2z"/>
<path d="M904 1154 c-18 -15 -18 -15 2 -5 12 6 25 7 29 3 5 -4 5 -1 1 6 -9 15
-8 15 -32 -4z"/>
<path d="M680 1153 c8 -3 22 -11 30 -17 13 -10 13 -9 1 7 -7 9 -21 17 -30 16
-13 0 -14 -1 -1 -6z"/>
<path d="M1872 1147 c-6 -7 -7 -18 -3 -26 6 -9 11 -10 15 -2 4 6 1 11 -6 11
-10 0 -9 3 2 10 8 5 12 12 9 15 -4 3 -11 0 -17 -8z"/>
<path d="M921 1124 c0 -11 3 -14 6 -6 3 7 2 16 -1 19 -3 4 -6 -2 -5 -13z"/>
<path d="M1837 1114 c-3 -3 -3 -13 0 -22 4 -10 2 -13 -5 -8 -7 4 -12 2 -12 -3
0 -18 19 -12 30 8 9 19 0 37 -13 25z"/>
<path d="M1807 1055 c3 -8 9 -12 14 -9 12 7 11 11 -5 17 -10 4 -13 1 -9 -8z"/>
<path d="M994 1022 c4 -3 14 -7 22 -8 9 -1 13 0 10 4 -4 3 -14 7 -22 8 -9 1
-13 0 -10 -4z"/>
<path d="M1751 1001 c-10 -6 -9 -10 3 -14 8 -3 18 -2 21 3 8 13 -9 20 -24 11z"/>
<path d="M1028 993 c7 -3 16 -2 19 1 4 3 -2 6 -13 5 -11 0 -14 -3 -6 -6z"/>
<path d="M825 981 c-3 -5 -2 -12 3 -15 5 -3 9 1 9 9 0 17 -3 19 -12 6z"/>
<path d="M1056 955 c4 -8 8 -15 10 -15 2 0 4 7 4 15 0 8 -4 15 -10 15 -5 0 -7
-7 -4 -15z"/>
<path d="M1714 959 c-13 -22 12 -30 31 -9 10 11 15 20 10 20 -4 0 -14 -8 -22
-17 -14 -17 -14 -17 -9 0 6 19 1 23 -10 6z"/>
<path d="M1076 933 c-6 -14 -5 -15 5 -6 7 7 10 15 7 18 -3 3 -9 -2 -12 -12z"/>
<path d="M1100 926 c0 -2 7 -7 16 -10 8 -3 12 -2 9 4 -6 10 -25 14 -25 6z"/>
<path d="M910 893 c0 -6 8 -17 18 -24 16 -13 16 -13 2 6 -8 11 -16 22 -17 24
-2 2 -3 0 -3 -6z"/>
<path d="M1640 868 c-2 -5 -3 -13 -4 -18 0 -6 -8 -15 -16 -20 -8 -5 -10 -10
-4 -10 17 0 37 27 31 42 -3 7 -6 10 -7 6z"/>
<path d="M1171 844 c0 -11 3 -14 6 -6 3 7 2 16 -1 19 -3 4 -6 -2 -5 -13z"/>
<path d="M1180 800 c8 -5 20 -10 25 -10 6 0 3 5 -5 10 -8 5 -19 10 -25 10 -5
0 -3 -5 5 -10z"/>
<path d="M1605 800 c3 -5 8 -10 11 -10 2 0 4 5 4 10 0 6 -5 10 -11 10 -5 0 -7
-4 -4 -10z"/>
<path d="M1348 771 c-8 -12 -18 -19 -21 -16 -4 3 -5 2 -2 -2 3 -3 -2 -15 -11
-25 -14 -15 -20 -16 -33 -5 -14 10 -14 10 -4 -4 10 -12 10 -18 0 -29 -9 -10
-9 -11 1 -6 6 4 12 2 12 -4 0 -7 5 -10 11 -8 6 2 9 7 7 11 -2 3 8 14 21 23 18
13 20 18 10 25 -11 7 -11 9 2 9 24 0 45 28 32 41 -7 7 -15 4 -25 -10z m15 -6
c-3 -9 -8 -14 -10 -11 -3 3 -2 9 2 15 9 16 15 13 8 -4z m-46 -56 c-9 -6 -14
-15 -11 -21 5 -7 2 -8 -5 -4 -9 6 -8 13 5 27 9 11 20 17 23 13 3 -3 -2 -10
-12 -15z"/>
<path d="M1010 761 c0 -10 19 -25 25 -20 1 2 -3 10 -11 17 -8 7 -14 8 -14 3z"/>
<path d="M1255 739 c-4 -6 -5 -12 -2 -15 2 -3 7 2 10 11 7 17 1 20 -8 4z"/>
<path d="M1489 683 c-1 -5 -1 -11 0 -15 2 -14 -33 -47 -43 -41 -6 3 -6 0 1 -7
15 -17 45 11 49 46 2 21 -4 36 -7 17z"/>
<path d="M1075 660 c3 -5 8 -10 11 -10 2 0 4 5 4 10 0 6 -5 10 -11 10 -5 0 -7
-4 -4 -10z"/>
<path d="M1375 540 c-8 -13 9 -20 24 -11 10 6 9 10 -3 14 -8 3 -18 2 -21 -3z"/>
<path d="M1206 522 c-3 -5 1 -13 10 -16 8 -3 13 -10 9 -15 -3 -5 -1 -12 4 -15
12 -8 9 13 -6 38 -6 11 -13 14 -17 8z"/>
<path d="M1247 463 c-3 -5 1 -14 8 -20 11 -10 13 -9 12 7 -1 20 -12 26 -20 13z"/>
</g>
</svg>
